<mxfile host="app.diagrams.net" agent="Mozilla/5.0 (Windows NT 10.0; Win64; x64) AppleWebKit/537.36 (KHTML, like Gecko) Chrome/141.0.0.0 Safari/537.36" version="28.2.7" pages="2">
  <diagram name="Wide-desktop view" id="mfNYwyvx274dgNiUh0vO">
    <mxGraphModel dx="2084" dy="1124" grid="1" gridSize="10" guides="1" tooltips="1" connect="1" arrows="1" fold="1" page="1" pageScale="1" pageWidth="850" pageHeight="1100" math="0" shadow="0">
      <root>
        <mxCell id="0" />
        <mxCell id="1" parent="0" />
        <mxCell id="_8vNQLR7khC9Nz3REaT3-3" value="&lt;b&gt;&lt;font style=&quot;font-size: 37px;&quot;&gt;HEADER&lt;/font&gt;&lt;/b&gt;" style="rounded=1;whiteSpace=wrap;html=1;fillColor=#0000CC;" parent="1" vertex="1">
          <mxGeometry width="830" height="130" as="geometry" />
        </mxCell>
        <mxCell id="_8vNQLR7khC9Nz3REaT3-1" value="&lt;b&gt;&lt;font style=&quot;font-size: 21px;&quot;&gt;LOGO&lt;/font&gt;&lt;/b&gt;" style="whiteSpace=wrap;html=1;aspect=fixed;" parent="1" vertex="1">
          <mxGeometry width="80" height="80" as="geometry" />
        </mxCell>
        <mxCell id="_8vNQLR7khC9Nz3REaT3-2" value="NAV LINKS" style="rounded=0;whiteSpace=wrap;html=1;fontStyle=1;fontSize=17;" parent="1" vertex="1">
          <mxGeometry x="400" y="10" width="440" height="60" as="geometry" />
        </mxCell>
        <mxCell id="_8vNQLR7khC9Nz3REaT3-5" value="&lt;b&gt;&lt;font style=&quot;font-size: 21px;&quot;&gt;SITE NAME&lt;/font&gt;&lt;/b&gt;" style="rounded=1;whiteSpace=wrap;html=1;" parent="1" vertex="1">
          <mxGeometry x="130" y="10" width="240" height="50" as="geometry" />
        </mxCell>
        <mxCell id="_8vNQLR7khC9Nz3REaT3-6" value="SITE FOOTER" style="rounded=1;whiteSpace=wrap;html=1;fontStyle=1;fontSize=21;fillColor=#0000CC;" parent="1" vertex="1">
          <mxGeometry y="990" width="840" height="60" as="geometry" />
        </mxCell>
        <mxCell id="_8vNQLR7khC9Nz3REaT3-7" value="SITE PURPOSE" style="rounded=0;whiteSpace=wrap;html=1;fontStyle=1;fontSize=21;" parent="1" vertex="1">
          <mxGeometry x="30" y="160" width="750" height="190" as="geometry" />
        </mxCell>
        <mxCell id="_8vNQLR7khC9Nz3REaT3-8" value="SCENARIOS - FEATURED PROGRAMS" style="rounded=0;whiteSpace=wrap;html=1;fontStyle=1;fontSize=21;" parent="1" vertex="1">
          <mxGeometry x="60" y="390" width="700" height="300" as="geometry" />
        </mxCell>
        <mxCell id="_8vNQLR7khC9Nz3REaT3-9" value="SITE COLOURS- WHITE AND BLUE (Basic colours because I would&amp;nbsp; be adding more colours into the site in the form of pictures and i would prefer if the colours are not too jarring and too much)" style="text;html=1;whiteSpace=wrap;strokeColor=none;fillColor=none;align=center;verticalAlign=middle;rounded=0;" parent="1" vertex="1">
          <mxGeometry x="120" y="770" width="280" height="30" as="geometry" />
        </mxCell>
        <mxCell id="ogre_SHmrbCAoQYv-2Ma-1" value="" style="endArrow=none;dashed=1;html=1;dashPattern=1 3;strokeWidth=2;rounded=0;entryX=1;entryY=0;entryDx=0;entryDy=0;exitX=0;exitY=1;exitDx=0;exitDy=0;" parent="1" source="_8vNQLR7khC9Nz3REaT3-8" target="_8vNQLR7khC9Nz3REaT3-8" edge="1">
          <mxGeometry width="50" height="50" relative="1" as="geometry">
            <mxPoint x="400" y="630" as="sourcePoint" />
            <mxPoint x="450" y="580" as="targetPoint" />
          </mxGeometry>
        </mxCell>
        <mxCell id="ogre_SHmrbCAoQYv-2Ma-2" value="" style="endArrow=none;dashed=1;html=1;dashPattern=1 3;strokeWidth=2;rounded=0;entryX=0;entryY=0;entryDx=0;entryDy=0;exitX=1;exitY=1;exitDx=0;exitDy=0;" parent="1" source="_8vNQLR7khC9Nz3REaT3-8" target="_8vNQLR7khC9Nz3REaT3-8" edge="1">
          <mxGeometry width="50" height="50" relative="1" as="geometry">
            <mxPoint x="310" y="590" as="sourcePoint" />
            <mxPoint x="360" y="540" as="targetPoint" />
          </mxGeometry>
        </mxCell>
        <mxCell id="ogre_SHmrbCAoQYv-2Ma-3" value="" style="endArrow=none;dashed=1;html=1;dashPattern=1 3;strokeWidth=2;rounded=0;exitX=0;exitY=1;exitDx=0;exitDy=0;entryX=1;entryY=0;entryDx=0;entryDy=0;" parent="1" source="_8vNQLR7khC9Nz3REaT3-7" target="_8vNQLR7khC9Nz3REaT3-7" edge="1">
          <mxGeometry width="50" height="50" relative="1" as="geometry">
            <mxPoint x="280" y="300" as="sourcePoint" />
            <mxPoint x="330" y="250" as="targetPoint" />
          </mxGeometry>
        </mxCell>
        <mxCell id="ogre_SHmrbCAoQYv-2Ma-4" value="" style="endArrow=none;dashed=1;html=1;dashPattern=1 3;strokeWidth=2;rounded=0;entryX=0;entryY=0;entryDx=0;entryDy=0;exitX=1;exitY=1;exitDx=0;exitDy=0;" parent="1" source="_8vNQLR7khC9Nz3REaT3-7" target="_8vNQLR7khC9Nz3REaT3-7" edge="1">
          <mxGeometry width="50" height="50" relative="1" as="geometry">
            <mxPoint x="220" y="320" as="sourcePoint" />
            <mxPoint x="270" y="270" as="targetPoint" />
          </mxGeometry>
        </mxCell>
      </root>
    </mxGraphModel>
  </diagram>
  <diagram id="W8473YyOjaNxYOx_zUc0" name="Mobile-view">
    <mxGraphModel dx="1042" dy="562" grid="1" gridSize="10" guides="1" tooltips="1" connect="1" arrows="1" fold="1" page="1" pageScale="1" pageWidth="850" pageHeight="1100" math="0" shadow="0">
      <root>
        <mxCell id="0" />
        <mxCell id="1" parent="0" />
        <mxCell id="eY__n3p90yP5bGFvN_d2-7" value="HEADER" style="rounded=1;whiteSpace=wrap;html=1;fontStyle=1;fontSize=21;fillColor=#0000CC;" parent="1" vertex="1">
          <mxGeometry width="850" height="360" as="geometry" />
        </mxCell>
        <mxCell id="eY__n3p90yP5bGFvN_d2-1" value="NAV LINKS" style="rounded=0;whiteSpace=wrap;html=1;fontStyle=1;fontSize=17;" parent="1" vertex="1">
          <mxGeometry x="10" y="170" width="440" height="170" as="geometry" />
        </mxCell>
        <mxCell id="eY__n3p90yP5bGFvN_d2-2" value="&lt;b&gt;&lt;font style=&quot;font-size: 21px;&quot;&gt;SITE NAME&lt;/font&gt;&lt;/b&gt;" style="rounded=1;whiteSpace=wrap;html=1;" parent="1" vertex="1">
          <mxGeometry x="20" y="100" width="240" height="50" as="geometry" />
        </mxCell>
        <mxCell id="eY__n3p90yP5bGFvN_d2-3" value="SITE PURPOSE" style="rounded=0;whiteSpace=wrap;html=1;fontStyle=1;fontSize=21;" parent="1" vertex="1">
          <mxGeometry x="50" y="390" width="750" height="190" as="geometry" />
        </mxCell>
        <mxCell id="eY__n3p90yP5bGFvN_d2-4" value="SCENARIOS - FEATURED PROGRAMS" style="rounded=0;whiteSpace=wrap;html=1;fontStyle=1;fontSize=21;" parent="1" vertex="1">
          <mxGeometry x="60" y="620" width="700" height="300" as="geometry" />
        </mxCell>
        <mxCell id="eY__n3p90yP5bGFvN_d2-5" value="SITE COLOURS- WHITE AND BLUE (Basic colours because I would&amp;nbsp; be adding more colours into the site in the form of pictures and i would prefer if the colours are not too jarring and too much)" style="text;html=1;whiteSpace=wrap;strokeColor=none;fillColor=none;align=center;verticalAlign=middle;rounded=0;" parent="1" vertex="1">
          <mxGeometry x="70" y="860" width="280" height="30" as="geometry" />
        </mxCell>
        <mxCell id="eY__n3p90yP5bGFvN_d2-6" value="LOGO" style="whiteSpace=wrap;html=1;aspect=fixed;fontStyle=1;fontSize=21;" parent="1" vertex="1">
          <mxGeometry width="80" height="80" as="geometry" />
        </mxCell>
        <mxCell id="eY__n3p90yP5bGFvN_d2-8" value="" style="rounded=1;whiteSpace=wrap;html=1;" parent="1" vertex="1">
          <mxGeometry x="160" y="750" width="120" height="60" as="geometry" />
        </mxCell>
        <mxCell id="eY__n3p90yP5bGFvN_d2-9" value="FOOTER" style="rounded=1;whiteSpace=wrap;html=1;fontStyle=1;fontSize=21;fillColor=#0000CC;" parent="1" vertex="1">
          <mxGeometry x="20" y="1030" width="810" height="70" as="geometry" />
        </mxCell>
        <mxCell id="eY__n3p90yP5bGFvN_d2-10" value="" style="endArrow=none;html=1;rounded=0;exitX=0;exitY=1;exitDx=0;exitDy=0;entryX=1;entryY=0;entryDx=0;entryDy=0;" parent="1" source="eY__n3p90yP5bGFvN_d2-4" target="eY__n3p90yP5bGFvN_d2-4" edge="1">
          <mxGeometry width="50" height="50" relative="1" as="geometry">
            <mxPoint x="340" y="810" as="sourcePoint" />
            <mxPoint x="390" y="760" as="targetPoint" />
          </mxGeometry>
        </mxCell>
        <mxCell id="eY__n3p90yP5bGFvN_d2-11" value="" style="endArrow=none;dashed=1;html=1;dashPattern=1 3;strokeWidth=2;rounded=0;exitX=1;exitY=1;exitDx=0;exitDy=0;" parent="1" source="eY__n3p90yP5bGFvN_d2-4" edge="1">
          <mxGeometry width="50" height="50" relative="1" as="geometry">
            <mxPoint x="200" y="810" as="sourcePoint" />
            <mxPoint x="70" y="620" as="targetPoint" />
            <Array as="points">
              <mxPoint x="60" y="610" />
            </Array>
          </mxGeometry>
        </mxCell>
        <mxCell id="eY__n3p90yP5bGFvN_d2-13" value="" style="endArrow=none;dashed=1;html=1;dashPattern=1 3;strokeWidth=2;rounded=0;" parent="1" edge="1">
          <mxGeometry width="50" height="50" relative="1" as="geometry">
            <mxPoint x="200" y="810" as="sourcePoint" />
            <mxPoint x="250" y="760" as="targetPoint" />
          </mxGeometry>
        </mxCell>
        <mxCell id="eY__n3p90yP5bGFvN_d2-14" value="" style="endArrow=none;dashed=1;html=1;dashPattern=1 3;strokeWidth=2;rounded=0;entryX=1;entryY=0;entryDx=0;entryDy=0;exitX=0;exitY=1;exitDx=0;exitDy=0;" parent="1" source="eY__n3p90yP5bGFvN_d2-3" target="eY__n3p90yP5bGFvN_d2-3" edge="1">
          <mxGeometry width="50" height="50" relative="1" as="geometry">
            <mxPoint x="200" y="530" as="sourcePoint" />
            <mxPoint x="250" y="480" as="targetPoint" />
          </mxGeometry>
        </mxCell>
        <mxCell id="eY__n3p90yP5bGFvN_d2-15" value="" style="endArrow=none;dashed=1;html=1;dashPattern=1 3;strokeWidth=2;rounded=0;exitX=1;exitY=1;exitDx=0;exitDy=0;entryX=0;entryY=0;entryDx=0;entryDy=0;" parent="1" source="eY__n3p90yP5bGFvN_d2-3" target="eY__n3p90yP5bGFvN_d2-3" edge="1">
          <mxGeometry width="50" height="50" relative="1" as="geometry">
            <mxPoint x="440" y="540" as="sourcePoint" />
            <mxPoint x="490" y="490" as="targetPoint" />
          </mxGeometry>
        </mxCell>
      </root>
    </mxGraphModel>
  </diagram>
</mxfile>
